# xmcd CD database file
#
# Track frame offsets:
#	150
#	21027
#	38842
#	59867
#
# Disc length: 1009 seconds
#
# Revision: 4
# Processed by: cddbd v1.5.1PL0 Copyright (c) Steve Scherf et al.
# Submitted via: CDex 1.51
#
DISCID=3103ef04
DTITLE=NEWS - 希望〜Yell〜
DYEAR=2004
DGENRE=JPop
TTITLE0=希望〜Yell〜
TTITLE1=Stand Up
TTITLE2=Good News!
TTITLE3=LET'S GO TO THE PLANETS
EXTD=YEAR: 2004
EXTT0=
EXTT1=
EXTT2=
EXTT3=
PLAYORDER=
